<svg width="486" height="381" viewBox="0 0 486 381" fill="none" xmlns="http://www.w3.org/2000/svg">
<path d="M377.886 160.684C349.128 167.643 316.723 172.265 282.893 174.306L335.926 88.2631L336 88.1425L336 88.0007C336 87.748 335.888 87.5389 335.753 87.3814C335.62 87.2266 335.444 87.0962 335.253 86.9834C334.872 86.7577 334.337 86.5486 333.685 86.3496C332.906 86.1118 331.92 85.8764 330.747 85.6428C330.478 84.2796 329.974 82.922 329.237 81.5796C325.771 75.2682 317.29 69.5702 305.028 65.1296C292.739 60.6795 277.104 57.6557 260.102 56.4309C243.098 55.2061 225.472 55.8344 209.449 58.238C193.431 60.6406 179.707 64.7135 170.025 69.9608C169.847 70.0571 169.67 70.1802 169.546 70.3449C169.409 70.5285 169.334 70.7722 169.412 71.0339C169.48 71.2619 169.641 71.4245 169.786 71.5355C169.937 71.6518 170.125 71.7535 170.333 71.8451C171.148 72.2053 172.589 72.5493 174.517 72.8879C178.4 73.57 184.459 74.2626 191.98 74.965C206.547 76.3256 226.658 77.7282 247.21 79.1617L249.242 79.3034C270.499 80.7863 292.048 82.3017 308.283 83.8378C316.402 84.6059 323.18 85.3783 327.925 86.1527C328.622 86.2664 329.273 86.3798 329.876 86.493C330.082 87.9926 329.98 89.4897 329.576 90.9747C328.771 93.9357 326.754 96.8959 323.492 99.7478C316.959 105.459 305.838 110.382 291.484 113.856C277.142 117.326 260.269 119.181 243 119.181L242.5 119.181L242.5 119.681L242.5 176.001L242.5 176.501L243 176.501C255.791 176.501 268.506 176.136 281.034 175.417L155.845 378.532C155.78 378.194 155.698 377.825 155.601 377.426C155.331 376.314 154.932 374.94 154.416 373.322C153.384 370.088 151.876 365.859 149.97 360.785C146.157 350.634 140.741 337.073 134.327 321.251C130.829 312.62 127.034 303.316 123.04 293.524C112.386 267.407 100.317 237.819 88.6887 208.278C72.6995 167.659 57.5506 127.147 48.0678 95.8891C43.3254 80.2568 40.007 66.9618 38.7051 57.1342C38.0537 52.2173 37.9116 48.1993 38.3343 45.2027C38.7601 42.1844 39.738 40.3378 41.191 39.5503C67.8229 25.1164 105.712 13.8498 150.082 7.19412C194.446 0.539342 243.268 -1.20235 290.371 2.19066C337.476 5.58382 380.727 13.9583 414.657 26.2457C448.613 38.5426 471.608 54.1694 480.892 71.0736C485.524 79.5051 486.641 88.0634 484.347 96.4951C482.051 104.939 476.321 113.303 467.174 121.301C448.87 137.303 417.816 151.022 377.886 160.684ZM334.93 87.972L281.674 174.378C269.104 175.113 256.342 175.491 243.5 175.501L243.5 120.18C260.661 120.145 277.427 118.286 291.719 114.828C306.136 111.339 317.44 106.367 324.15 100.501C327.509 97.5637 329.669 94.4447 330.541 91.2372C330.951 89.7283 331.074 88.2101 330.909 86.6959C331.899 86.9004 332.731 87.1039 333.393 87.306C334.019 87.4972 334.465 87.6789 334.744 87.8441C334.828 87.8935 334.888 87.9366 334.93 87.972Z" fill="#CE3147" fill-opacity="0.5" stroke="#181818"/>
<path d="M24.4998 115.5L24.4998 115.898L24.8872 115.987L44.7147 120.569C43.3548 121.261 42.0211 121.962 40.7143 122.67C34.0825 126.265 29.9435 126.413 27.4217 125.133C24.9007 123.853 23.7788 121.033 23.4602 118.15C23.3024 116.722 23.347 115.314 23.5026 114.141C23.6557 112.987 23.9092 112.113 24.1487 111.671C24.3412 112.219 24.4998 113.407 24.4998 115.5ZM156.548 145.047C156.534 145.143 156.524 145.252 156.516 145.375L47.6474 120.22C73.7922 107.38 109.184 97.3279 150.082 91.1931C194.446 84.5384 243.268 82.7967 290.371 86.1896C337.475 89.5828 380.726 97.9574 414.656 110.245C423.33 113.386 431.008 111.509 437.749 107.243C444.469 102.989 450.282 96.3479 455.286 89.9079C456.949 87.7677 458.531 85.6397 460.027 83.6261C460.782 82.6105 461.515 81.6241 462.226 80.6799C464.355 77.8532 466.286 75.4046 468.043 73.6266C469.821 71.8269 471.329 70.8127 472.603 70.6812C473.779 70.56 474.935 71.1885 476.062 73.2407C477.195 75.304 478.209 78.6632 479.069 83.0389C479.927 87.4022 480.623 92.7341 481.138 98.7139C482.169 110.673 482.475 125.195 481.915 139.69C481.354 154.187 479.927 168.639 477.496 180.462C476.281 186.373 474.817 191.615 473.091 195.871C471.361 200.136 469.386 203.365 467.173 205.3C448.87 221.302 417.815 235.021 377.886 244.683C338.107 254.309 291.353 259.464 243.5 259.5L243.5 204.179C260.661 204.144 277.427 202.285 291.719 198.827C306.136 195.338 317.44 190.366 324.15 184.5C327.509 181.563 329.669 178.444 330.541 175.236C331.417 172.017 330.982 168.755 329.237 165.579C325.77 159.267 317.29 153.569 305.028 149.129C292.739 144.679 277.104 141.655 260.102 140.43C243.098 139.205 225.472 139.834 209.448 142.237C193.431 144.64 179.706 148.713 170.025 153.96C167.782 155.175 165.942 154.92 164.395 153.977C162.808 153.009 161.501 151.295 160.456 149.547C159.937 148.679 159.49 147.817 159.109 147.055C158.99 146.816 158.876 146.585 158.768 146.365C158.536 145.893 158.331 145.477 158.159 145.162C158.035 144.934 157.908 144.723 157.784 144.574C157.724 144.503 157.635 144.408 157.515 144.343C157.38 144.269 157.157 144.213 156.931 144.339C156.749 144.442 156.668 144.611 156.632 144.704C156.59 144.811 156.565 144.93 156.548 145.047Z" stroke="#181818"/>
<path d="M170.025 99.9599C160.662 105.035 155.342 111.073 155.034 117.416L15.9999 95.1725C15.9992 94.535 15.9972 93.9304 15.9952 93.3563C15.9846 90.1982 15.977 87.959 16.2175 86.2209C16.5042 84.1498 17.1358 82.8573 18.5422 81.6312C19.996 80.3637 22.2774 79.1653 25.9333 77.3544C26.4393 77.1037 26.9706 76.8418 27.5283 76.5668C30.9767 74.8668 35.4366 72.6682 41.1911 69.5494C67.823 55.1154 105.712 43.8487 150.082 37.193C194.446 30.5383 243.269 28.7966 290.371 32.1896C337.476 35.5827 380.727 43.9573 414.657 56.2447C448.613 68.5417 471.608 84.1686 480.893 101.073C485.524 109.504 486.641 118.063 484.347 126.494C482.051 134.938 476.321 143.302 467.174 151.3C448.87 167.302 417.816 181.021 377.886 190.683C338.108 200.309 291.353 205.464 243.5 205.5L243.5 150.179C260.661 150.144 277.427 148.285 291.719 144.827C306.136 141.338 317.44 136.366 324.15 130.5C327.509 127.563 329.669 124.444 330.541 121.236C331.417 118.017 330.982 114.755 329.237 111.579C325.771 105.267 317.29 99.5693 305.028 95.1287C292.739 90.6786 277.105 87.6548 260.102 86.43C243.098 85.2051 225.472 85.8335 209.449 88.237C193.431 90.6397 179.707 94.7126 170.025 99.9599Z" fill="white" stroke="#181818"/>
<mask id="path-4-inside-1_102_3" fill="white">
<path d="M7.6932e-06 88C9.21478e-06 70.5952 14.2517 53.5813 40.9529 39.1098C67.6541 24.6383 105.605 13.3591 150.008 6.69858C194.41 0.0380604 243.27 -1.70463 290.407 1.69089C337.544 5.08638 380.843 13.4676 414.827 25.7746C448.811 38.0816 471.955 53.7617 481.331 70.8321C490.707 87.9024 485.895 105.596 467.503 121.676C449.111 137.756 417.965 151.5 378.004 161.169C338.042 170.839 291.061 176 243 176L243 119.68C260.302 119.68 277.215 117.822 291.601 114.341C305.987 110.86 317.2 105.912 323.821 100.123C330.442 94.3346 332.174 87.9648 328.799 81.8195C325.424 75.6742 317.092 70.0294 304.858 65.5989C292.623 61.1683 277.036 58.1511 260.066 56.9287C243.097 55.7064 225.508 56.3337 209.523 58.7315C193.538 61.1293 179.876 65.1898 170.263 70.3995C160.651 75.6093 155.52 81.7343 155.52 88L7.6932e-06 88Z"/>
</mask>
<path d="M7.6932e-06 88C9.21478e-06 70.5952 14.2517 53.5813 40.9529 39.1098C67.6541 24.6383 105.605 13.3591 150.008 6.69858C194.41 0.0380604 243.27 -1.70463 290.407 1.69089C337.544 5.08638 380.843 13.4676 414.827 25.7746C448.811 38.0816 471.955 53.7617 481.331 70.8321C490.707 87.9024 485.895 105.596 467.503 121.676C449.111 137.756 417.965 151.5 378.004 161.169C338.042 170.839 291.061 176 243 176L243 119.68C260.302 119.68 277.215 117.822 291.601 114.341C305.987 110.86 317.2 105.912 323.821 100.123C330.442 94.3346 332.174 87.9648 328.799 81.8195C325.424 75.6742 317.092 70.0294 304.858 65.5989C292.623 61.1683 277.036 58.1511 260.066 56.9287C243.097 55.7064 225.508 56.3337 209.523 58.7315C193.538 61.1293 179.876 65.1898 170.263 70.3995C160.651 75.6093 155.52 81.7343 155.52 88L7.6932e-06 88Z" fill="#C4C4C4" stroke="#181818" stroke-width="2" mask="url(#path-4-inside-1_102_3)"/>
<mask id="path-5-inside-2_102_3" fill="white">
<path d="M7.6932e-06 88C6.68292e-06 99.5563 6.28538 110.999 18.4973 121.676C30.7092 132.353 48.6084 142.054 71.1731 150.225C93.7377 158.397 120.526 164.879 150.008 169.301C179.49 173.724 211.089 176 243 176L243 111.307C234.548 111.307 226.179 110.704 218.371 109.533C210.563 108.361 203.468 106.645 197.492 104.48C191.516 102.316 186.775 99.7467 183.541 96.919C180.306 94.0914 178.642 91.0606 178.642 88L7.6932e-06 88Z"/>
</mask>
<path d="M7.6932e-06 88C6.68292e-06 99.5563 6.28538 110.999 18.4973 121.676C30.7092 132.353 48.6084 142.054 71.1731 150.225C93.7377 158.397 120.526 164.879 150.008 169.301C179.49 173.724 211.089 176 243 176L243 111.307C234.548 111.307 226.179 110.704 218.371 109.533C210.563 108.361 203.468 106.645 197.492 104.48C191.516 102.316 186.775 99.7467 183.541 96.919C180.306 94.0914 178.642 91.0606 178.642 88L7.6932e-06 88Z" fill="#C4C4C4" stroke="#181818" stroke-width="2" mask="url(#path-5-inside-2_102_3)"/>
<mask id="path-6-inside-3_102_3" fill="white">
<path d="M7.6932e-06 88C6.68292e-06 99.5563 6.28538 110.999 18.4973 121.676C30.7092 132.353 48.6084 142.054 71.1731 150.225C93.7377 158.397 120.526 164.879 150.008 169.301C179.49 173.724 211.089 176 243 176L243 111.307C234.548 111.307 226.179 110.704 218.371 109.533C210.563 108.361 203.468 106.645 197.492 104.48C191.516 102.316 186.775 99.7467 183.541 96.919C180.306 94.0914 178.642 91.0606 178.642 88L7.6932e-06 88Z"/>
</mask>
<path d="M7.6932e-06 88C6.68292e-06 99.5563 6.28538 110.999 18.4973 121.676C30.7092 132.353 48.6084 142.054 71.1731 150.225C93.7377 158.397 120.526 164.879 150.008 169.301C179.49 173.724 211.089 176 243 176L243 111.307C234.548 111.307 226.179 110.704 218.371 109.533C210.563 108.361 203.468 106.645 197.492 104.48C191.516 102.316 186.775 99.7467 183.541 96.919C180.306 94.0914 178.642 91.0606 178.642 88L7.6932e-06 88Z" fill="#CE3147" stroke="#181818" stroke-width="2" mask="url(#path-6-inside-3_102_3)"/>
</svg>
