<svg width="222" height="78" viewBox="0 0 222 78" fill="none" xmlns="http://www.w3.org/2000/svg">
<path d="M21.6 43.504L22.464 46.384H22.968L22.824 43.504V10.672H24.48V61H21.456L6.048 18.376L5.184 15.496H4.68L4.824 18.376V61H3.168V10.672H10.08L21.6 43.504ZM43.4379 54.016C43.4379 51.952 42.6219 49.288 40.9899 46.024L31.9179 27.808C30.6219 25.216 29.9739 22.696 29.9739 20.248C29.9739 18.76 30.2139 17.392 30.6939 16.144C31.1739 14.896 31.8459 13.816 32.7099 12.904C33.5739 11.992 34.5819 11.296 35.7339 10.816C36.9339 10.288 38.2299 10.024 39.6219 10.024C41.3019 10.024 42.9339 10.384 44.5179 11.104C46.1019 11.824 47.5179 12.856 48.7659 14.2L47.6139 15.28C46.7019 14.32 45.6459 13.552 44.4459 12.976C43.2459 12.352 42.0939 12.04 40.9899 12.04C39.5499 12.04 38.3739 12.592 37.4619 13.696C36.5979 14.8 36.1659 16.264 36.1659 18.088C36.1659 20.296 36.8379 22.768 38.1819 25.504L48.3339 46.168C49.3419 48.232 49.8459 50.224 49.8459 52.144C49.8459 53.536 49.5579 54.808 48.9819 55.96C48.4539 57.112 47.6859 58.12 46.6779 58.984C45.7179 59.8 44.5419 60.448 43.1499 60.928C41.8059 61.408 40.3419 61.648 38.7579 61.648C37.1259 61.648 35.4939 61.408 33.8619 60.928C32.2779 60.4 30.7419 59.656 29.2539 58.696L30.1179 57.328C31.3659 58.096 32.6859 58.696 34.0779 59.128C35.4699 59.56 36.7419 59.776 37.8939 59.776C39.6219 59.776 40.9659 59.272 41.9259 58.264C42.9339 57.256 43.4379 55.84 43.4379 54.016Z" fill="white"/>
<path d="M89.3887 14.2129H91.7324V25.5508L81.3906 13.4219H76.4395V14.2129H78.7832V30.209H76.4395V31H82.5039C82.3867 30.5117 82.123 30.248 81.7129 30.209H80.0137V17.9922L91.293 31.1465L92.9629 30.8535V14.2129H95.3066V13.4219H89.3887V14.2129ZM110.354 13.1289C107.756 13.1289 105.559 13.9492 103.762 15.5898C101.906 17.2891 100.979 19.4766 100.979 22.1523C100.979 25.2188 102.082 27.6113 104.289 29.3301C105.988 30.6387 107.98 31.293 110.266 31.293C112.863 31.293 115.051 30.4727 116.828 28.832C118.645 27.1133 119.553 24.9258 119.553 22.2695C119.553 19.0469 118.41 16.5957 116.125 14.916C114.484 13.7246 112.561 13.1289 110.354 13.1289ZM110.354 30.4434C108.361 30.4434 107.014 29.5352 106.311 27.7188C105.822 26.4297 105.578 24.6133 105.578 22.2695C105.578 17.7969 106.545 15.1504 108.479 14.3301C109.006 14.0957 109.602 13.9785 110.266 13.9785C112.473 13.9785 113.889 15.2188 114.514 17.6992C114.807 18.8906 114.953 20.3652 114.953 22.123C114.953 26.2832 114.172 28.8613 112.609 29.8574C112.004 30.248 111.252 30.4434 110.354 30.4434ZM134.863 31.1465L140.986 14.2129H142.451V13.4219H137.471V14.2129H139.814L135.391 26.6055L130.381 14.2129H132.695V13.4219H124.785V14.2129H126.279L132.08 28.7441C132.568 29.9941 132.949 30.7168 133.223 30.9121C133.457 31.0684 133.799 31.1465 134.248 31.1465H134.863ZM165.906 31C165.906 30.5312 165.779 30.2773 165.525 30.2383C165.428 30.2188 165.32 30.209 165.203 30.209H164.324L157.41 13.4219H155.242L148.826 30.209H146.951V31H152.342C152.342 30.5312 152.215 30.2773 151.961 30.2383C151.863 30.2188 151.756 30.209 151.639 30.209H149.998L152.107 24.584H157.938L160.135 30.209H158.055V31H165.906ZM157.586 23.7051H152.459L154.979 16.9668L157.586 23.7051Z" fill="white"/>
<path d="M91.1465 57.1074C91.1465 55.4863 90.2578 54.0996 88.4805 52.9473C88.2266 52.8105 87.2012 52.2637 85.4043 51.3066C83.7637 50.4473 82.7383 49.5977 82.3281 48.7578C82.1328 48.3477 82.0352 47.918 82.0352 47.4688C82.0352 46.3164 82.5918 45.5547 83.7051 45.1836C84.0762 45.0664 84.4668 45.0078 84.877 45.0078C86.4785 45.0078 87.6797 45.6133 88.4805 46.8242C88.9688 47.5859 89.2227 48.4941 89.2422 49.5488H90.3848V44.2461C89.8379 44.2461 89.5156 44.4316 89.418 44.8027C89.3984 44.9395 89.3887 45.0957 89.3887 45.2715C87.7676 44.5098 86.0586 44.1289 84.2617 44.1289C81.8984 44.1289 80.1211 44.7441 78.9297 45.9746C78.168 46.7754 77.7871 47.7227 77.7871 48.8164C77.7871 50.4375 78.7148 51.8242 80.5703 52.9766C80.8047 53.1328 81.8594 53.6895 83.7344 54.6465C85.4141 55.5254 86.459 56.375 86.8691 57.1953C87.0449 57.5859 87.1328 57.9863 87.1328 58.3965C87.1328 59.8027 86.5078 60.7402 85.2578 61.209C84.8086 61.3652 84.3105 61.4434 83.7637 61.4434C81.6934 61.4434 80.2383 60.4961 79.3984 58.6016C79.0469 57.8008 78.832 56.8828 78.7539 55.8477H77.6113V62.0586C78.1387 62.0586 78.4512 61.9023 78.5488 61.5898C78.5879 61.3945 78.6074 61.1309 78.6074 60.7988C80.1113 61.7949 81.9277 62.293 84.0566 62.293C86.5371 62.293 88.4414 61.6582 89.7695 60.3887C90.6875 59.4902 91.1465 58.3965 91.1465 57.1074ZM109.826 62C109.709 61.5117 109.445 61.248 109.035 61.209H107.043V45.2129H107.541C108.947 45.2129 109.943 45.8379 110.529 47.0879C110.646 47.3613 110.773 47.6836 110.91 48.0547L111.818 50.6914H112.697L112.58 44.4219H97.4043L97.2871 50.6914H98.166L99.0742 48.0547C99.5039 46.8047 100.061 45.9844 100.744 45.5938C101.213 45.3398 101.779 45.2129 102.443 45.2129H102.941V61.209H100.158V62H109.826ZM117.93 45.2129H120.273V55.5547C120.312 60.0273 122.783 62.2734 127.686 62.293C130.83 62.293 132.812 61.0918 133.633 58.6895C133.945 57.7129 134.102 56.5312 134.102 55.1445V45.2129H136.445V44.4219H130.674V45.2129H133.018V55.3203C132.998 59.3633 131.426 61.3945 128.301 61.4141C126.328 61.4141 125.107 60.3398 124.639 58.1914C124.463 57.3906 124.375 56.4336 124.375 55.3203V45.2129H126.719V44.4219H117.93V45.2129ZM141.678 44.4219V45.2129H144.021V61.209H141.678V62H150.408C153.123 62 155.359 61.1797 157.117 59.5391C158.836 57.918 159.695 55.8281 159.695 53.2695C159.695 50.0078 158.465 47.5762 156.004 45.9746C154.383 44.9395 152.488 44.4219 150.32 44.4219H141.678ZM150.408 45.2129C152.459 45.2129 153.826 46.2188 154.51 48.2305C154.9 49.4609 155.096 51.0918 155.096 53.123C155.096 57.1855 154.285 59.6953 152.664 60.6523C152.039 61.0234 151.268 61.209 150.35 61.209H148.123V45.2129H150.408ZM174.596 62C174.479 61.5117 174.215 61.248 173.805 61.209H172.252V45.2129H174.596V44.4219H165.807V45.2129H168.15V61.209H165.807V62H174.596ZM190.082 44.1289C187.484 44.1289 185.287 44.9492 183.49 46.5898C181.635 48.2891 180.707 50.4766 180.707 53.1523C180.707 56.2188 181.811 58.6113 184.018 60.3301C185.717 61.6387 187.709 62.293 189.994 62.293C192.592 62.293 194.779 61.4727 196.557 59.832C198.373 58.1133 199.281 55.9258 199.281 53.2695C199.281 50.0469 198.139 47.5957 195.854 45.916C194.213 44.7246 192.289 44.1289 190.082 44.1289ZM190.082 61.4434C188.09 61.4434 186.742 60.5352 186.039 58.7188C185.551 57.4297 185.307 55.6133 185.307 53.2695C185.307 48.7969 186.273 46.1504 188.207 45.3301C188.734 45.0957 189.33 44.9785 189.994 44.9785C192.201 44.9785 193.617 46.2188 194.242 48.6992C194.535 49.8906 194.682 51.3652 194.682 53.123C194.682 57.2832 193.9 59.8613 192.338 60.8574C191.732 61.248 190.98 61.4434 190.082 61.4434ZM219.953 57.1074C219.953 55.4863 219.064 54.0996 217.287 52.9473C217.033 52.8105 216.008 52.2637 214.211 51.3066C212.57 50.4473 211.545 49.5977 211.135 48.7578C210.939 48.3477 210.842 47.918 210.842 47.4688C210.842 46.3164 211.398 45.5547 212.512 45.1836C212.883 45.0664 213.273 45.0078 213.684 45.0078C215.285 45.0078 216.486 45.6133 217.287 46.8242C217.775 47.5859 218.029 48.4941 218.049 49.5488H219.191V44.2461C218.645 44.2461 218.322 44.4316 218.225 44.8027C218.205 44.9395 218.195 45.0957 218.195 45.2715C216.574 44.5098 214.865 44.1289 213.068 44.1289C210.705 44.1289 208.928 44.7441 207.736 45.9746C206.975 46.7754 206.594 47.7227 206.594 48.8164C206.594 50.4375 207.521 51.8242 209.377 52.9766C209.611 53.1328 210.666 53.6895 212.541 54.6465C214.221 55.5254 215.266 56.375 215.676 57.1953C215.852 57.5859 215.939 57.9863 215.939 58.3965C215.939 59.8027 215.314 60.7402 214.064 61.209C213.615 61.3652 213.117 61.4434 212.57 61.4434C210.5 61.4434 209.045 60.4961 208.205 58.6016C207.854 57.8008 207.639 56.8828 207.561 55.8477H206.418V62.0586C206.945 62.0586 207.258 61.9023 207.355 61.5898C207.395 61.3945 207.414 61.1309 207.414 60.7988C208.918 61.7949 210.734 62.293 212.863 62.293C215.344 62.293 217.248 61.6582 218.576 60.3887C219.494 59.4902 219.953 58.3965 219.953 57.1074Z" fill="white" fill-opacity="0.75"/>
<line x1="64.6" y1="2.62268e-08" x2="64.6" y2="73" stroke="white" stroke-width="1.2"/>
</svg>
